<svg width="15" height="10" viewBox="0 0 15 10" fill="none" xmlns="http://www.w3.org/2000/svg">
<g clip-path="url(#clip0)">
<path d="M0.803292 6.2938L11.4104 6.29381L9.08008 8.62416C8.75865 8.94559 8.75865 9.42773 9.08008 9.74916C9.40151 10.0706 9.88365 10.0706 10.2051 9.74916L13.9015 6.05273C14.2229 5.73131 14.2229 5.24916 13.9015 4.92773L10.2051 1.23131C9.88365 0.909876 9.40151 0.909876 9.08008 1.23131C8.75865 1.55273 8.75865 2.03488 9.08008 2.35631L11.4104 4.68666L0.803292 4.68666C0.401506 4.68666 -0.000279945 5.00809 -0.000279987 5.49023C-0.000280029 5.97238 0.401506 6.2938 0.803292 6.2938Z" fill="#4089ED"/>
</g>
<defs>
<clipPath id="clip0">
<rect width="14.1429" height="9" fill="white" transform="translate(14.1426 9.99023) rotate(-180)"/>
</clipPath>
</defs>
</svg>
