<svg width="148" height="33" viewBox="0 0 148 33" fill="none" xmlns="http://www.w3.org/2000/svg">
<g clip-path="url(#clip0)">
<path d="M60.1868 7.64876C60.1868 7.28796 60.1979 6.82082 59.9971 6.58155C59.2757 5.70424 55.4752 6.52838 55.0364 7.62977C53.337 11.8758 51.6487 16.1295 49.7484 20.8997C48.1643 16.8017 46.7586 13.1709 45.3641 9.54012C44.1035 6.26253 44.1072 6.3043 40.6823 6.33089C39.6522 6.33849 39.3026 6.59674 39.3138 7.69434C39.3621 13.3874 39.3919 19.0843 39.2989 24.7773C39.2766 26.2243 40.0241 26.0572 40.9017 26.0572C41.7756 26.0572 42.5416 26.2281 42.4933 24.7773C42.378 21.1123 42.4449 17.4398 42.4672 13.771C42.471 13.2735 42.233 12.6658 42.9469 12.1075C43.1924 12.7076 43.4006 13.2013 43.6014 13.6988C45.0815 17.4398 46.5838 21.1731 48.0155 24.933C48.3688 25.8597 48.8894 26.0724 49.8042 26.0914C50.7562 26.1104 51.0648 25.6812 51.3623 24.8799C52.5895 21.5795 53.8762 18.3019 55.1517 15.0205C55.5235 14.0672 55.9289 13.1291 56.364 12.0733C57.0705 12.7797 56.8176 13.4368 56.8214 14.0178C56.8474 17.5613 56.9218 21.1085 56.7916 24.6444C56.7358 26.1446 57.4647 26.1066 58.4539 26.0534C59.3278 26.004 60.2574 26.38 60.2277 24.7393C60.131 19.0387 60.1979 13.3418 60.1868 7.64876Z" fill="#BEBEBE"/>
<path d="M15.5067 1.52582C15.5216 0.356067 15.1534 -0.000936304 14.0229 0.0142553C9.81338 0.0712239 5.60011 0.067426 1.39056 0.0180532C0.375354 0.00665951 -0.0151076 0.253523 -0.000232818 1.37391C0.0592662 5.7377 0.0481101 10.1053 0.00348587 14.4691C-0.00767019 15.4489 0.256356 15.8021 1.25296 15.768C3.42096 15.6996 5.58895 15.7452 7.75695 15.7452C9.80223 15.7452 11.8475 15.6882 13.8891 15.768C15.0344 15.8135 15.5364 15.5629 15.5104 14.2374C15.4323 10.0065 15.4472 5.76428 15.5067 1.52582Z" fill="#BEBEBE"/>
<path d="M14.0974 17.246C9.82465 17.2954 5.55188 17.2916 1.27911 17.246C0.319685 17.2346 -0.0187156 17.5042 0.0147526 18.5221C0.0854076 20.6717 0.0370647 22.8213 0.0370647 24.9709C0.0370647 27.1851 0.092845 29.3993 0.0147526 31.6097C-0.026153 32.7111 0.36059 33.0111 1.38695 32.9997C5.65972 32.9503 9.93249 32.9503 14.2053 32.9845C15.1498 32.9921 15.5105 32.7035 15.4994 31.6932C15.4547 27.3294 15.4473 22.9656 15.5031 18.6018C15.5142 17.4739 15.1089 17.2346 14.0974 17.246Z" fill="#BEBEBE"/>
<path d="M31.0546 17.25C28.9535 17.307 26.8488 17.269 24.744 17.269C22.5165 17.269 20.289 17.3032 18.0652 17.2538C17.1913 17.2348 16.8715 17.5044 16.879 18.4273C16.9161 22.8481 16.9199 27.2727 16.8752 31.6934C16.8641 32.7151 17.2285 32.9771 18.1693 32.9657C22.4979 32.9277 26.8302 32.9315 31.1587 32.9619C32.0252 32.9695 32.345 32.7037 32.3375 31.777C32.2966 27.3562 32.2929 22.9317 32.3413 18.5109C32.3524 17.4817 31.9917 17.2234 31.0546 17.25Z" fill="#BEBEBE"/>
<path d="M18.0616 15.765C20.1627 15.7194 22.2675 15.7498 24.3685 15.7498C26.596 15.7498 28.8235 15.7156 31.0473 15.765C31.9918 15.7878 32.3488 15.4991 32.3377 14.4851C32.2931 10.0643 32.3005 5.64357 32.334 1.22281C32.3414 0.307511 31.9918 -0.00011934 31.1403 0.00367856C26.8117 0.026466 22.4832 0.0302639 18.1546 -0.00011934C17.2026 -0.00771515 16.8494 0.330298 16.8568 1.32155C16.894 5.74231 16.8903 10.1631 16.8605 14.5838C16.8531 15.5029 17.1952 15.784 18.0616 15.765Z" fill="#BEBEBE"/>
<path d="M147.877 23.8847C147.892 22.9694 147.215 23.5049 146.799 23.5543C145.404 23.7252 144.675 23.0872 144.653 21.663C144.627 20.083 144.753 18.4917 144.605 16.927C144.441 15.2027 144.824 14.2722 146.721 14.6596C147.717 14.8647 147.978 14.3824 147.951 13.4063C147.929 12.4796 147.907 11.7087 146.709 11.9555C144.798 12.3505 144.359 11.4048 144.62 9.70336C144.705 9.15267 144.634 8.57539 144.634 7.75504C143.738 8.03229 143.043 8.31333 142.325 8.45006C141.593 8.58678 141.157 8.9096 141.314 9.69577C141.745 11.8796 140.622 12.2328 138.87 11.9631C138.324 11.8796 137.759 11.9593 137.201 11.9441C136.911 11.9365 136.65 11.9517 136.491 11.5415C135.803 9.76033 137.052 7.72466 138.848 7.76643C139.425 7.77783 140.295 8.32852 140.135 7.00305C140.034 6.15232 140.522 5.14208 138.975 4.98637C135.535 4.63696 133.255 6.68403 133.136 10.4098C133.114 11.0364 133.597 12.0998 132.248 11.9479C131.284 11.8378 130.831 12.0543 130.838 13.224C130.846 14.3558 131.076 14.8685 132.255 14.6824C133.207 14.5305 133.159 15.2255 133.155 15.8826C133.144 18.9171 133.196 21.9516 133.133 24.9861C133.099 26.6154 134.233 25.9584 134.936 26.0192C135.646 26.0799 136.572 26.4141 136.513 24.9595C136.412 22.6238 136.487 20.2843 136.487 17.9448C136.487 14.633 136.487 14.6938 139.796 14.6482C140.994 14.633 141.388 14.9369 141.329 16.194C141.228 18.2752 141.224 20.3679 141.34 22.4491C141.518 25.6166 144.363 27.3256 147.197 26.1521C148.442 25.6318 147.866 24.6481 147.877 23.8847Z" fill="#BEBEBE"/>
<path d="M97.5224 11.5837C92.9633 11.5571 90.1705 14.4283 90.1445 19.1681C90.1222 23.5205 92.8108 26.3461 97.0129 26.3879C101.468 26.4297 104.29 23.6003 104.383 18.9896C104.476 14.4853 101.81 11.6103 97.5224 11.5837ZM97.3736 23.6344C95.0792 23.6648 93.6735 22.0317 93.5954 19.2365C93.5136 16.3007 94.8003 14.5233 97.1059 14.3903C99.4189 14.2574 100.828 15.8449 100.921 18.6896C101.025 21.838 99.7573 23.6041 97.3736 23.6344Z" fill="#BEBEBE"/>
<path d="M123.87 11.5874C119.325 11.5836 116.536 14.489 116.544 19.225C116.551 23.5774 119.244 26.3651 123.464 26.3916C127.904 26.4182 130.719 23.5508 130.783 18.9401C130.842 14.4282 128.172 11.5874 123.87 11.5874ZM123.65 23.6382C121.259 23.585 119.894 21.7582 119.991 18.7389C120.076 15.9588 121.512 14.3219 123.803 14.3865C126.119 14.451 127.402 16.2057 127.32 19.1908C127.242 22.1228 125.948 23.6875 123.65 23.6382Z" fill="#BEBEBE"/>
<path d="M113.182 18.6361C112.308 18.0626 111.304 17.7018 110.363 17.2308C109.649 16.8738 109.084 16.3801 109.277 15.4724C109.489 14.4736 110.289 14.3026 111.133 14.2761C112.196 14.2419 113.13 14.7926 114.327 15.1306C114 13.9532 115.164 12.5518 113.476 11.9631C111.661 11.3327 109.816 11.401 108.076 12.3277C106.719 13.0531 105.945 14.1773 105.886 15.7952C105.826 17.4739 106.447 18.7424 107.912 19.5286C108.675 19.9387 109.47 20.2806 110.248 20.6641C111.04 21.0553 111.906 21.4655 111.638 22.5859C111.345 23.8164 110.303 23.7063 109.381 23.6949C108.158 23.6759 107.113 22.9695 105.956 22.5555C105.789 25.5368 105.763 25.628 106.603 25.8901C108.723 26.5585 110.865 26.7294 112.903 25.6052C115.666 24.0823 115.826 20.3603 113.182 18.6361Z" fill="#BEBEBE"/>
<path d="M78.7054 11.9937C76.1729 10.9417 72.4468 11.819 70.6098 13.8319C68.6835 15.9474 68.1369 19.7832 69.364 22.5519C70.5317 25.1801 72.9637 26.5359 76.225 26.3764C79.2632 26.2283 79.7094 25.7156 79.4528 22.5671C76.3329 23.9647 74.3396 23.8166 73.0455 22.1683C71.8556 20.6568 71.8147 17.7514 72.9563 16.0917C74.2169 14.2573 75.8903 14.0522 79.5904 15.3245C79.1962 14.1889 80.4011 12.7002 78.7054 11.9937Z" fill="#BEBEBE"/>
<path d="M89.553 11.8759C88.8427 11.3062 87.8796 11.7201 87.0763 12.0961C86.8011 12.2253 86.5408 12.419 86.314 12.6316C85.7897 13.114 85.5888 13.1558 85.1277 12.3962C84.5365 11.4201 83.3428 11.9518 82.4428 12.0088C81.502 12.0658 81.9334 13.0076 81.9259 13.5431C81.885 17.2727 81.9929 21.0098 81.8664 24.7356C81.8107 26.3687 82.7515 26.0307 83.6254 26.0458C84.4584 26.0572 85.3471 26.3117 85.2319 24.8077C85.0868 22.924 85.1724 21.0174 85.2058 19.1185C85.269 15.5864 86.5706 14.4508 89.9732 15.0281C89.7984 13.9457 90.5793 12.6962 89.553 11.8759Z" fill="#BEBEBE"/>
<path d="M64.7941 11.9822C64.1099 11.9405 63.1691 11.5379 63.1988 13.0153C63.2806 16.9955 63.2806 20.9833 63.1988 24.9635C63.1691 26.4181 64.0727 26.0725 64.7792 26.0155C65.4821 25.9623 66.6312 26.6156 66.5679 24.9749C66.4936 23.0189 66.5493 21.0554 66.5493 19.0957C66.5531 19.0957 66.5531 19.0957 66.5568 19.0957C66.5568 17.0714 66.4936 15.0471 66.5754 13.0267C66.6423 11.3784 65.4932 12.024 64.7941 11.9822Z" fill="#BEBEBE"/>
<path d="M64.9987 5.95491C63.7864 5.92073 62.946 6.63094 62.9386 7.89944C62.9349 9.0616 63.6674 9.72624 64.9913 9.80219C66.0586 9.74523 66.9064 9.19073 66.8953 7.87666C66.8841 6.69551 66.1218 5.9853 64.9987 5.95491Z" fill="#BEBEBE"/>
</g>
<defs>
<clipPath id="clip0">
<rect width="148" height="33" fill="white"/>
</clipPath>
</defs>
</svg>
