<svg width="139" height="34" viewBox="0 0 139 34" fill="none" xmlns="http://www.w3.org/2000/svg">
<g clip-path="url(#clip0)">
<path d="M137.87 27.5687C135.508 24.9345 133.177 22.2722 130.758 19.689C130.09 18.975 130.178 18.5849 130.79 17.9244C133.018 15.5146 135.179 13.0512 137.356 10.5981C137.645 10.2742 138.048 9.99114 138.112 9.42757C136.478 9.42757 134.922 9.54233 133.394 9.39697C131.673 9.23122 130.544 9.81263 129.52 11.1387C127.987 13.1201 126.24 14.9485 124.545 16.884C124.163 16.4071 124.299 16.0144 124.299 15.6548C124.288 11.029 124.27 6.4032 124.312 1.77738C124.32 0.897609 124.081 0.576301 123.135 0.632403C121.859 0.706355 120.576 0.683404 119.295 0.637503C118.576 0.612002 118.284 0.787957 118.287 1.54788C118.311 10.3736 118.308 19.202 118.29 28.0303C118.287 28.7163 118.542 28.9101 119.218 28.8897C120.496 28.8514 121.782 28.8157 123.055 28.8973C124.052 28.9611 124.344 28.6602 124.315 27.6988C124.24 25.4318 124.291 23.1622 124.291 20.5816C124.824 21.1655 125.142 21.4945 125.436 21.8413C127.218 23.9476 128.995 26.0565 130.766 28.1731C131.077 28.5429 131.344 28.8922 131.925 28.8871C134.169 28.8667 136.409 28.8795 139.003 28.8795C138.478 28.2674 138.178 27.913 137.87 27.5687Z" fill="#BEBEBE"/>
<path d="M93.8538 10.264C93.8565 9.56015 93.5568 9.39695 92.9071 9.4199C91.8491 9.45305 90.7857 9.42755 89.7277 9.42755C87.8714 9.42755 87.8714 9.425 87.7256 11.3452C83.1964 7.4844 77.8504 9.11644 75.1987 11.9878C71.4411 16.0577 71.6241 22.9097 75.6388 26.7374C78.4921 29.4557 82.8808 30.0525 86.116 28.1425C86.6516 27.8263 87.1289 27.4233 87.6911 27.0204C87.8953 28.8718 87.8953 28.8718 89.7887 28.8718C90.8043 28.8718 91.8226 28.8412 92.8355 28.882C93.5409 28.91 93.8618 28.7443 93.8565 27.9767C93.8273 22.0708 93.8299 16.1674 93.8538 10.264ZM87.8025 19.1662C87.8025 22.1983 86.7816 23.4478 84.0821 23.8737C81.5523 24.2715 79.1949 22.9556 78.4099 20.709C77.6012 18.391 78.7122 15.8971 81.0272 14.8235C83.1752 13.829 86.108 14.5328 87.4525 16.3535C88.1419 17.2817 87.6195 18.3349 87.8025 19.1662Z" fill="#BEBEBE"/>
<path d="M57.1985 17.7229C55.5756 17.1772 53.897 16.7845 52.2662 16.2643C51.476 16.0118 50.5373 15.6778 50.6911 14.668C50.8449 13.6709 51.7889 13.4184 52.7064 13.3394C54.0986 13.2195 55.4112 13.5969 56.7344 13.9565C57.6758 14.2115 58.6331 15.3692 59.3888 14.8465C60.1154 14.3441 60.2135 13.041 60.6723 12.1306C61.0197 11.4421 60.842 11.0545 60.1764 10.7128C56.6443 8.89971 52.9822 8.42285 49.214 9.88404C46.7108 10.8556 45.194 13.1532 45.2496 15.5605C45.3053 18.0621 46.5914 19.6151 49.4765 20.6377C49.9724 20.8136 50.4922 20.9182 50.9987 21.0712C52.3458 21.4741 53.7804 21.5557 55.085 22.1141C55.6419 22.3513 56.1378 22.665 56.1537 23.2846C56.1696 23.9425 55.7002 24.3505 55.1142 24.6387C54.666 24.858 54.1861 24.8963 53.7008 24.9243C52.0461 25.0136 50.4657 24.7203 48.8905 24.223C48.0075 23.9451 47.1563 22.8001 46.4005 23.3152C45.6872 23.8023 45.5572 25.034 45.0799 25.8882C44.653 26.6533 44.9553 27.0256 45.6395 27.3928C48.0128 28.6627 50.577 29.1829 53.2606 29.2492C54.4141 29.2824 55.5517 29.1702 56.6681 28.8744C59.6036 28.0966 61.5792 25.8755 61.7277 23.1724C61.8603 20.7371 60.248 18.7481 57.1985 17.7229Z" fill="#BEBEBE"/>
<path d="M114.919 23.4911C114.028 23.1367 113.18 22.6522 112.371 22.1396C111.599 21.6525 111.127 21.5939 110.433 22.392C108.982 24.0623 106.489 24.4015 104.511 23.4095C102.493 22.3971 101.472 20.199 102.013 18.0187C102.491 16.0934 103.827 14.9153 105.728 14.4027C107.622 13.8927 109.205 14.6603 110.494 15.9506C110.995 16.4529 111.305 16.8508 112.087 16.3356C112.994 15.7389 113.978 15.2366 114.978 14.7929C115.97 14.3542 115.85 13.9182 115.285 13.1761C112.379 9.37142 106.975 7.98164 102.488 9.94009C97.9614 11.9164 95.5536 16.6493 96.6249 21.4562C97.622 25.9264 101.963 29.2517 106.8 29.2441C110.17 29.239 113.214 27.7421 115.246 25.1691C115.845 24.4244 116.041 23.9348 114.919 23.4911Z" fill="#BEBEBE"/>
<path d="M70.0728 14.826C70.0728 10.8403 70.0728 6.85454 70.0728 2.86879C70.0728 0.647683 70.0728 0.640032 67.8108 0.652783C66.6228 0.660433 65.0477 0.270273 64.3529 0.846587C63.5415 1.51725 64.0984 3.07789 64.0957 4.24837C64.0692 12.049 64.0984 19.8522 64.0639 27.6529C64.0612 28.5556 64.2257 28.9687 65.2811 28.8845C66.4637 28.7902 67.665 28.7978 68.8503 28.8845C69.8633 28.9585 70.1099 28.6168 70.0966 27.6733C70.0436 23.3917 70.0728 19.1101 70.0728 14.826Z" fill="#BEBEBE"/>
<path d="M31.3174 17.8785C28.358 17.83 25.3986 17.8326 22.4393 17.8759C20.18 17.9116 18.5757 19.434 18.5624 21.4307C18.5491 23.5039 20.1641 25.0034 22.4923 25.0467C23.9481 25.0722 25.4066 25.0518 26.8651 25.0518C28.3235 25.0518 29.7793 25.0697 31.2378 25.0493C33.5767 25.0161 35.2499 23.5345 35.2632 21.5123C35.2764 19.4595 33.6589 17.9167 31.3174 17.8785Z" fill="#BEBEBE"/>
<path d="M12.7736 16.1624C14.9878 16.1267 16.6293 14.6425 16.7009 12.6535C16.7725 10.6823 15.3246 9.06553 13.1289 8.98903C9.96008 8.87938 6.77797 8.88193 3.60911 8.98393C1.42141 9.05278 -0.0423628 10.6619 0.0106724 12.6254C0.0637076 14.6145 1.70515 16.119 3.91141 16.1598C5.36723 16.1879 6.8204 16.1649 8.27621 16.1649C9.77711 16.1649 11.2754 16.1853 12.7736 16.1624Z" fill="#BEBEBE"/>
<path d="M22.3172 16.1597C24.314 16.1342 25.913 14.5557 25.9607 12.5157C25.9952 11.029 25.966 9.5423 25.966 8.05561C25.966 6.56893 25.9952 5.08224 25.9581 3.59555C25.9103 1.54785 24.306 0.015262 22.2748 0.015262C20.2356 0.0127119 18.5888 1.53 18.5543 3.5675C18.504 6.54087 18.5093 9.51425 18.549 12.4876C18.5782 14.5685 20.2859 16.1852 22.3172 16.1597Z" fill="#BEBEBE"/>
<path d="M12.9777 17.8707C10.9226 17.8758 9.34476 19.4543 9.30233 21.5989C9.27316 22.9989 9.29703 24.3989 9.29703 25.8014C9.29703 27.3289 9.26786 28.859 9.30498 30.3839C9.35802 32.452 10.9199 33.9769 12.9485 33.9999C14.9718 34.0228 16.6557 32.5209 16.7034 30.4757C16.7723 27.4641 16.7697 24.4499 16.7007 21.4383C16.6583 19.388 14.9851 17.8656 12.9777 17.8707Z" fill="#BEBEBE"/>
<path d="M12.784 7.19116C13.3091 7.22431 13.8394 7.20136 14.3671 7.20136C16.7246 7.20136 16.7246 7.20136 16.6795 4.9267C16.6795 4.33509 16.7431 3.73582 16.6689 3.15441C16.4196 1.23421 14.6641 -0.137727 12.7098 0.0101772C10.7952 0.155531 9.32615 1.69067 9.30228 3.57772C9.27842 5.49536 10.7846 7.06875 12.784 7.19116Z" fill="#BEBEBE"/>
<path d="M5.03833 17.853C4.51063 17.853 3.97763 17.8275 3.45523 17.881C1.51679 18.0799 0.0874951 19.5131 0.00263872 21.3058C-0.0769141 23.0092 1.1429 24.5648 2.85858 24.9473C4.66709 25.3502 6.43051 24.4806 7.18095 22.8282C7.56811 21.9764 7.3931 21.0763 7.44083 20.2985C7.44348 17.8504 7.44348 17.8504 5.03833 17.853Z" fill="#BEBEBE"/>
<path d="M32.3381 9.04514C30.5058 8.67793 28.7609 9.5781 28.0608 11.2433C27.7161 12.0593 27.8752 12.9161 27.8301 13.6531C27.8301 16.1649 27.8301 16.1675 30.3095 16.1649C30.7948 16.1649 31.2827 16.1955 31.7627 16.1522C33.6561 15.9864 35.1729 14.5099 35.2736 12.7606C35.3691 11.0138 34.0962 9.3996 32.3381 9.04514Z" fill="#BEBEBE"/>
<path d="M23.5926 27.0689C22.7414 26.7425 21.8531 26.9082 21.0973 26.8572C18.549 26.8547 18.5463 26.8547 18.549 29.1854C18.549 29.7337 18.5198 30.2896 18.5861 30.8328C18.8009 32.5847 20.3416 33.9311 22.1474 33.9897C23.8923 34.0458 25.5364 32.8091 25.8838 31.1796C26.2603 29.4226 25.3057 27.7217 23.5926 27.0689Z" fill="#BEBEBE"/>
</g>
<defs>
<clipPath id="clip0">
<rect width="139" height="34" fill="white"/>
</clipPath>
</defs>
</svg>
