<svg width="152" height="27" viewBox="0 0 152 27" fill="none" xmlns="http://www.w3.org/2000/svg">
<path d="M20.4661 3.90135C20.1318 3.29839 19.8094 2.62318 18.9161 2.57038C17.0703 2.45924 15.1565 2.55093 13.6332 3.49567C8.69935 6.56328 5.73549 10.8563 5.15277 16.483C5.11432 16.8498 5.41603 17.4528 4.8274 17.5389C4.31272 17.6139 4.22989 17.0026 4.06129 16.6442C3.097 14.5824 2.96389 12.4595 3.58506 10.2867C3.69746 9.89765 3.98438 9.36137 3.56436 9.13352C2.97868 8.81398 2.745 9.48085 2.464 9.79484C0.9377 11.5148 0.0887693 13.4932 0.0384842 15.6189C-0.461409 20.8649 3.85719 26.0193 9.28207 26.8001C15.4168 27.6809 20.9452 24.3382 22.3237 18.906C23.0069 16.2163 22.9655 13.4932 22.5485 10.784C22.1876 8.41108 21.6611 6.05757 20.4661 3.90135Z" fill="#BEBEBE"/>
<path d="M36.3295 5.82417C28.5087 7.57749 26.2459 15.5299 28.9849 21.1483C31.1856 25.6636 36.7584 27.9171 42.3223 26.65C44.3337 26.1916 46.0967 25.3357 47.5105 23.9048C48.2944 23.1101 48.534 22.2042 47.7649 21.2901C47.0698 20.462 45.9428 20.4759 44.8869 21.2539C44.384 21.6235 43.9137 22.0375 43.3783 22.3654C39.2579 24.8939 33.833 23.0017 32.5818 18.6698C32.2801 17.6306 32.635 17.5056 33.5875 17.525C35.7557 17.5695 37.9238 17.5389 40.092 17.5389C40.092 17.5333 40.092 17.5306 40.092 17.525C42.4081 17.525 44.7242 17.5806 47.0373 17.5083C48.9363 17.45 49.5841 16.697 49.4776 14.9492C49.0723 8.29438 43.2334 4.27647 36.3295 5.82417ZM44.4077 14.3407C40.4351 14.3351 36.4597 14.3379 32.4694 14.3379C33.1527 10.1922 37.2908 7.8359 41.3432 9.1891C43.5794 9.93655 44.6058 11.5621 44.9785 13.6655C45.0673 14.1629 44.9283 14.3407 44.4077 14.3407Z" fill="#BEBEBE"/>
<path d="M111.163 7.36913C107.817 4.76555 100.283 5.02396 97.0887 7.81927C96.4675 8.36111 96.2042 9.01131 96.4882 9.81711C96.716 10.4673 97.2129 10.8035 97.8784 10.9063C98.612 11.0175 99.1918 10.6174 99.7686 10.27C101.623 9.15302 103.641 8.73066 105.821 9.03909C107.876 9.32807 109.302 10.6451 109.574 12.4124C109.713 13.321 109.675 13.7794 108.388 13.7739C105.196 13.7628 101.996 13.9462 98.9729 15.0882C95.8434 16.2691 94.5567 18.1752 94.7519 21.3012C94.9057 23.7909 96.7278 25.8193 99.665 26.5167C103.501 27.4253 106.971 26.8668 109.802 23.6714C109.897 25.8943 110.544 26.7696 111.887 26.7751C113.26 26.7807 113.887 25.9054 113.89 23.9493C113.893 20.4815 113.896 17.0166 113.89 13.5488C113.881 11.1397 113.209 8.96129 111.163 7.36913ZM109.5 19.3367C108.713 22.8434 104.108 24.7995 100.771 23.0351C99.7538 22.496 99.2273 21.6874 99.2184 20.5538C99.2095 19.3395 99.9017 18.5726 100.916 17.9946C102.176 17.2777 104.599 16.8471 107.341 16.8054C109.891 16.7665 110.039 16.9415 109.5 19.3367Z" fill="#BEBEBE"/>
<path d="M140.476 5.53798C133.88 5.40738 128.851 9.82819 128.736 15.8634C128.615 22.257 133.33 26.8279 140.151 26.9223C146.886 27.0168 151.911 22.5432 152 16.3747C152.089 10.1255 147.356 5.67413 140.476 5.53798ZM140.284 23.4463C136.255 23.4324 133.265 20.3592 133.253 16.219C133.241 11.9761 136.199 9.00293 140.411 9.02238C144.537 9.03906 147.421 11.9983 147.418 16.2163C147.421 20.4759 144.478 23.4602 140.284 23.4463Z" fill="#BEBEBE"/>
<path d="M62.9599 5.56852C60.2563 5.77136 58.168 6.95228 56.4021 9.22799C56.4021 8.60279 56.411 8.29992 56.4021 7.99705C56.3577 6.57439 55.633 5.75191 54.4085 5.72691C53.1218 5.69912 52.2403 6.54938 52.2314 8.02484C52.1989 13.4348 52.2018 18.8476 52.2285 24.2604C52.2373 25.9026 53.1247 26.8112 54.5209 26.7695C55.9022 26.7278 56.6595 25.8248 56.6683 24.1604C56.6802 21.2928 56.6624 18.4253 56.6772 15.5577C56.6861 13.9044 57.1031 12.3567 58.1798 11.0146C59.4784 9.39748 61.6436 8.70838 63.6846 9.19742C65.8794 9.72258 66.7106 11.2453 66.9856 13.1542C67.1188 14.0656 67.175 14.9937 67.1838 15.9134C67.2134 18.8282 67.175 21.7402 67.2282 24.655C67.2519 25.9387 68.086 26.7167 69.281 26.7723C70.5174 26.8279 71.5409 26.0165 71.5498 24.7161C71.5764 20.5092 71.8278 16.2941 71.4285 12.0983C71.0232 7.89424 67.4353 5.23509 62.9599 5.56852Z" fill="#BEBEBE"/>
<path d="M92.6547 5.91026C91.4449 5.47402 90.383 5.88525 89.7795 7.13564C89.2146 8.30544 88.7502 9.52249 88.2414 10.7173C86.7003 14.3323 85.1592 17.9473 83.491 21.868C82.5326 19.5811 81.7103 17.6111 80.8791 15.6466C79.7077 12.8652 78.5571 10.0782 77.3473 7.31069C76.7409 5.92415 75.5578 5.43789 74.2888 5.92693C73.082 6.39374 72.6028 7.48019 73.1884 8.80004C75.5666 14.1461 77.9744 19.4811 80.4029 24.8078C80.9471 25.9998 81.9765 26.725 83.3815 26.7584C84.7954 26.7917 85.881 26.0998 86.4282 24.9161C88.9217 19.5145 91.3798 14.0961 93.7935 8.66111C94.3525 7.40517 93.8171 6.32984 92.6547 5.91026Z" fill="#BEBEBE"/>
<path d="M122.388 9.54193C123.468 9.59194 124.556 9.60306 125.633 9.53637C126.792 9.4669 127.647 8.93618 127.591 7.73026C127.538 6.61602 126.748 6.13254 125.609 6.12143C124.577 6.11031 123.542 6.08253 122.509 6.1242C121.758 6.15477 121.447 5.93248 121.48 5.18503C121.527 4.07913 121.495 2.96767 121.444 1.859C121.4 0.864248 120.859 0.216826 119.779 0.0417718C118.253 -0.202748 117.217 0.580827 117.2 2.11741C117.158 5.35174 117.188 8.58608 117.188 11.8204C117.2 11.8204 117.209 11.8204 117.22 11.8204C117.22 15.0075 117.117 18.2002 117.247 21.3845C117.422 25.6747 122.166 28.1893 126.248 26.261C127.198 25.8136 127.695 25.1384 127.39 24.1325C127.097 23.1628 126.295 22.8155 125.325 23.0405C122.373 23.7296 121.557 22.2597 121.515 20.1035C121.456 16.8692 121.518 13.6349 121.486 10.4005C121.474 9.74755 121.663 9.5058 122.388 9.54193Z" fill="#BEBEBE"/>
</svg>
