<svg width="169" height="44" viewBox="0 0 169 44" fill="none" xmlns="http://www.w3.org/2000/svg">
<path d="M62.6 30.216C60.92 30.216 59.448 29.856 58.184 29.136C56.936 28.416 55.976 27.4 55.304 26.088C54.632 24.76 54.296 23.208 54.296 21.432C54.296 19.672 54.632 18.136 55.304 16.824C55.976 15.496 56.936 14.48 58.184 13.776C59.448 13.056 60.92 12.696 62.6 12.696C63.752 12.696 64.832 12.88 65.84 13.248C66.864 13.6 67.712 14.096 68.384 14.736L67.376 16.992C66.608 16.368 65.84 15.92 65.072 15.648C64.32 15.36 63.512 15.216 62.648 15.216C61 15.216 59.72 15.752 58.808 16.824C57.912 17.896 57.464 19.432 57.464 21.432C57.464 23.448 57.912 25 58.808 26.088C59.704 27.16 60.984 27.696 62.648 27.696C63.512 27.696 64.32 27.56 65.072 27.288C65.84 27 66.608 26.544 67.376 25.92L68.384 28.176C67.712 28.816 66.864 29.32 65.84 29.688C64.832 30.04 63.752 30.216 62.6 30.216ZM82.4193 17.88V30H79.4673V28.056C79.0993 28.728 78.5713 29.256 77.8833 29.64C77.1953 30.008 76.4113 30.192 75.5313 30.192C74.4753 30.192 73.5393 29.936 72.7233 29.424C71.9073 28.912 71.2753 28.184 70.8273 27.24C70.3793 26.296 70.1553 25.2 70.1553 23.952C70.1553 22.704 70.3793 21.6 70.8273 20.64C71.2913 19.664 71.9313 18.912 72.7473 18.384C73.5633 17.84 74.4913 17.568 75.5313 17.568C76.4113 17.568 77.1953 17.76 77.8833 18.144C78.5713 18.512 79.0993 19.032 79.4673 19.704V17.88H82.4193ZM76.3473 27.84C77.3393 27.84 78.1073 27.496 78.6513 26.808C79.1953 26.12 79.4673 25.152 79.4673 23.904C79.4673 22.624 79.1953 21.64 78.6513 20.952C78.1073 20.264 77.3313 19.92 76.3233 19.92C75.3313 19.92 74.5553 20.28 73.9953 21C73.4513 21.704 73.1793 22.688 73.1793 23.952C73.1793 25.2 73.4513 26.16 73.9953 26.832C74.5553 27.504 75.3393 27.84 76.3473 27.84ZM92.2147 17.592C92.6787 17.592 93.0787 17.656 93.4147 17.784L93.3907 20.52C92.8787 20.312 92.3507 20.208 91.8067 20.208C90.7827 20.208 89.9987 20.504 89.4547 21.096C88.9267 21.688 88.6627 22.472 88.6627 23.448V30H85.6867V21.312C85.6867 20.032 85.6227 18.888 85.4947 17.88H88.3027L88.5427 20.016C88.8467 19.232 89.3267 18.632 89.9827 18.216C90.6387 17.8 91.3827 17.592 92.2147 17.592ZM101.997 17.568C103.053 17.568 103.981 17.832 104.781 18.36C105.597 18.872 106.229 19.6 106.677 20.544C107.125 21.488 107.349 22.584 107.349 23.832C107.349 25.08 107.117 26.192 106.653 27.168C106.205 28.128 105.573 28.872 104.757 29.4C103.957 29.928 103.037 30.192 101.997 30.192C101.101 30.192 100.301 30 99.5971 29.616C98.9091 29.232 98.3891 28.696 98.0371 28.008V30H95.0851V12.336H98.0611V19.704C98.4291 19.032 98.9571 18.512 99.6451 18.144C100.333 17.76 101.117 17.568 101.997 17.568ZM101.205 27.84C102.197 27.84 102.965 27.488 103.509 26.784C104.053 26.08 104.325 25.096 104.325 23.832C104.325 22.584 104.053 21.624 103.509 20.952C102.965 20.264 102.189 19.92 101.181 19.92C100.173 19.92 99.3971 20.264 98.8531 20.952C98.3091 21.64 98.0371 22.616 98.0371 23.88C98.0371 25.16 98.3091 26.144 98.8531 26.832C99.3971 27.504 100.181 27.84 101.205 27.84ZM120.576 24.096H112.224C112.288 25.392 112.608 26.352 113.184 26.976C113.776 27.584 114.648 27.888 115.8 27.888C117.128 27.888 118.36 27.456 119.496 26.592L120.36 28.656C119.784 29.12 119.072 29.496 118.224 29.784C117.392 30.056 116.544 30.192 115.68 30.192C113.696 30.192 112.136 29.632 111 28.512C109.864 27.392 109.296 25.856 109.296 23.904C109.296 22.672 109.544 21.576 110.04 20.616C110.536 19.656 111.232 18.912 112.128 18.384C113.024 17.84 114.04 17.568 115.176 17.568C116.84 17.568 118.152 18.112 119.112 19.2C120.088 20.272 120.576 21.752 120.576 23.64V24.096ZM115.248 19.728C114.448 19.728 113.792 19.968 113.28 20.448C112.784 20.912 112.464 21.592 112.32 22.488H117.96C117.864 21.576 117.584 20.888 117.12 20.424C116.672 19.96 116.048 19.728 115.248 19.728ZM130.052 17.568C132.948 17.568 134.396 19.232 134.396 22.56V30H131.396V22.704C131.396 21.744 131.212 21.048 130.844 20.616C130.476 20.168 129.908 19.944 129.14 19.944C128.228 19.944 127.492 20.24 126.932 20.832C126.372 21.408 126.092 22.176 126.092 23.136V30H123.116V21.312C123.116 20.032 123.052 18.888 122.924 17.88H125.732L125.948 19.872C126.364 19.136 126.924 18.568 127.628 18.168C128.348 17.768 129.156 17.568 130.052 17.568ZM142.017 30.192C139.825 30.192 138.081 29.68 136.785 28.656L137.625 26.544C138.921 27.504 140.401 27.984 142.065 27.984C142.785 27.984 143.337 27.864 143.721 27.624C144.121 27.384 144.321 27.048 144.321 26.616C144.321 26.248 144.185 25.96 143.913 25.752C143.641 25.528 143.177 25.336 142.521 25.176L140.505 24.72C138.297 24.24 137.193 23.112 137.193 21.336C137.193 20.6 137.401 19.952 137.817 19.392C138.233 18.816 138.817 18.368 139.569 18.048C140.321 17.728 141.193 17.568 142.185 17.568C143.049 17.568 143.881 17.704 144.681 17.976C145.481 18.232 146.185 18.608 146.793 19.104L145.905 21.144C144.689 20.248 143.441 19.8 142.161 19.8C141.473 19.8 140.937 19.928 140.553 20.184C140.169 20.44 139.977 20.792 139.977 21.24C139.977 21.592 140.089 21.872 140.313 22.08C140.553 22.288 140.953 22.464 141.513 22.608L143.577 23.064C144.777 23.336 145.649 23.76 146.193 24.336C146.753 24.896 147.033 25.632 147.033 26.544C147.033 27.664 146.585 28.552 145.689 29.208C144.793 29.864 143.569 30.192 142.017 30.192Z" fill="white"/>
<ellipse cx="20.5" cy="21.6656" rx="20.5" ry="21.6656" fill="white"/>
<g filter="url(#filter0_d)">
<path d="M21.512 30.98C19.7899 30.98 18.2811 30.59 16.9854 29.81C15.7061 29.03 14.7221 27.9293 14.0333 26.508C13.3444 25.0693 13 23.388 13 21.464C13 19.5573 13.3444 17.8933 14.0333 16.472C14.7221 15.0333 15.7061 13.9327 16.9854 13.17C18.2811 12.39 19.7899 12 21.512 12C22.6929 12 23.8 12.1993 24.8332 12.598C25.8829 12.9793 26.7521 13.5167 27.4409 14.21L26.4077 16.654C25.6204 15.978 24.8332 15.4927 24.046 15.198C23.2751 14.886 22.4469 14.73 21.5612 14.73C19.872 14.73 18.5599 15.3107 17.625 16.472C16.7066 17.6333 16.2474 19.2973 16.2474 21.464C16.2474 23.648 16.7066 25.3293 17.625 26.508C18.5435 27.6693 19.8556 28.25 21.5612 28.25C22.4469 28.25 23.2751 28.1027 24.046 27.808C24.8332 27.496 25.6204 27.002 26.4077 26.326L27.4409 28.77C26.7521 29.4633 25.8829 30.0093 24.8332 30.408C23.8 30.7893 22.6929 30.98 21.512 30.98Z" fill="#62B1F3"/>
</g>
<defs>
<filter id="filter0_d" x="11" y="12" width="18.4409" height="22.98" filterUnits="userSpaceOnUse" color-interpolation-filters="sRGB">
<feFlood flood-opacity="0" result="BackgroundImageFix"/>
<feColorMatrix in="SourceAlpha" type="matrix" values="0 0 0 0 0 0 0 0 0 0 0 0 0 0 0 0 0 0 127 0"/>
<feOffset dy="2"/>
<feGaussianBlur stdDeviation="1"/>
<feColorMatrix type="matrix" values="0 0 0 0 0 0 0 0 0 0 0 0 0 0 0 0 0 0 0.15 0"/>
<feBlend mode="normal" in2="BackgroundImageFix" result="effect1_dropShadow"/>
<feBlend mode="normal" in="SourceGraphic" in2="effect1_dropShadow" result="shape"/>
</filter>
</defs>
</svg>
