<svg width="157" height="41" viewBox="0 0 157 41" fill="none" xmlns="http://www.w3.org/2000/svg">
<path d="M62.6 29.216C60.92 29.216 59.448 28.856 58.184 28.136C56.936 27.416 55.976 26.4 55.304 25.088C54.632 23.76 54.296 22.208 54.296 20.432C54.296 18.672 54.632 17.136 55.304 15.824C55.976 14.496 56.936 13.48 58.184 12.776C59.448 12.056 60.92 11.696 62.6 11.696C63.752 11.696 64.832 11.88 65.84 12.248C66.864 12.6 67.712 13.096 68.384 13.736L67.376 15.992C66.608 15.368 65.84 14.92 65.072 14.648C64.32 14.36 63.512 14.216 62.648 14.216C61 14.216 59.72 14.752 58.808 15.824C57.912 16.896 57.464 18.432 57.464 20.432C57.464 22.448 57.912 24 58.808 25.088C59.704 26.16 60.984 26.696 62.648 26.696C63.512 26.696 64.32 26.56 65.072 26.288C65.84 26 66.608 25.544 67.376 24.92L68.384 27.176C67.712 27.816 66.864 28.32 65.84 28.688C64.832 29.04 63.752 29.216 62.6 29.216ZM82.4193 16.88V29H79.4673V27.056C79.0993 27.728 78.5713 28.256 77.8833 28.64C77.1953 29.008 76.4113 29.192 75.5313 29.192C74.4753 29.192 73.5393 28.936 72.7233 28.424C71.9073 27.912 71.2753 27.184 70.8273 26.24C70.3793 25.296 70.1553 24.2 70.1553 22.952C70.1553 21.704 70.3793 20.6 70.8273 19.64C71.2913 18.664 71.9313 17.912 72.7473 17.384C73.5633 16.84 74.4913 16.568 75.5313 16.568C76.4113 16.568 77.1953 16.76 77.8833 17.144C78.5713 17.512 79.0993 18.032 79.4673 18.704V16.88H82.4193ZM76.3473 26.84C77.3393 26.84 78.1073 26.496 78.6513 25.808C79.1953 25.12 79.4673 24.152 79.4673 22.904C79.4673 21.624 79.1953 20.64 78.6513 19.952C78.1073 19.264 77.3313 18.92 76.3233 18.92C75.3313 18.92 74.5553 19.28 73.9953 20C73.4513 20.704 73.1793 21.688 73.1793 22.952C73.1793 24.2 73.4513 25.16 73.9953 25.832C74.5553 26.504 75.3393 26.84 76.3473 26.84ZM92.2147 16.592C92.6787 16.592 93.0787 16.656 93.4147 16.784L93.3907 19.52C92.8787 19.312 92.3507 19.208 91.8067 19.208C90.7827 19.208 89.9987 19.504 89.4547 20.096C88.9267 20.688 88.6627 21.472 88.6627 22.448V29H85.6867V20.312C85.6867 19.032 85.6227 17.888 85.4947 16.88H88.3027L88.5427 19.016C88.8467 18.232 89.3267 17.632 89.9827 17.216C90.6387 16.8 91.3827 16.592 92.2147 16.592ZM101.997 16.568C103.053 16.568 103.981 16.832 104.781 17.36C105.597 17.872 106.229 18.6 106.677 19.544C107.125 20.488 107.349 21.584 107.349 22.832C107.349 24.08 107.117 25.192 106.653 26.168C106.205 27.128 105.573 27.872 104.757 28.4C103.957 28.928 103.037 29.192 101.997 29.192C101.101 29.192 100.301 29 99.5971 28.616C98.9091 28.232 98.3891 27.696 98.0371 27.008V29H95.0851V11.336H98.0611V18.704C98.4291 18.032 98.9571 17.512 99.6451 17.144C100.333 16.76 101.117 16.568 101.997 16.568ZM101.205 26.84C102.197 26.84 102.965 26.488 103.509 25.784C104.053 25.08 104.325 24.096 104.325 22.832C104.325 21.584 104.053 20.624 103.509 19.952C102.965 19.264 102.189 18.92 101.181 18.92C100.173 18.92 99.3971 19.264 98.8531 19.952C98.3091 20.64 98.0371 21.616 98.0371 22.88C98.0371 24.16 98.3091 25.144 98.8531 25.832C99.3971 26.504 100.181 26.84 101.205 26.84ZM120.576 23.096H112.224C112.288 24.392 112.608 25.352 113.184 25.976C113.776 26.584 114.648 26.888 115.8 26.888C117.128 26.888 118.36 26.456 119.496 25.592L120.36 27.656C119.784 28.12 119.072 28.496 118.224 28.784C117.392 29.056 116.544 29.192 115.68 29.192C113.696 29.192 112.136 28.632 111 27.512C109.864 26.392 109.296 24.856 109.296 22.904C109.296 21.672 109.544 20.576 110.04 19.616C110.536 18.656 111.232 17.912 112.128 17.384C113.024 16.84 114.04 16.568 115.176 16.568C116.84 16.568 118.152 17.112 119.112 18.2C120.088 19.272 120.576 20.752 120.576 22.64V23.096ZM115.248 18.728C114.448 18.728 113.792 18.968 113.28 19.448C112.784 19.912 112.464 20.592 112.32 21.488H117.96C117.864 20.576 117.584 19.888 117.12 19.424C116.672 18.96 116.048 18.728 115.248 18.728ZM130.052 16.568C132.948 16.568 134.396 18.232 134.396 21.56V29H131.396V21.704C131.396 20.744 131.212 20.048 130.844 19.616C130.476 19.168 129.908 18.944 129.14 18.944C128.228 18.944 127.492 19.24 126.932 19.832C126.372 20.408 126.092 21.176 126.092 22.136V29H123.116V20.312C123.116 19.032 123.052 17.888 122.924 16.88H125.732L125.948 18.872C126.364 18.136 126.924 17.568 127.628 17.168C128.348 16.768 129.156 16.568 130.052 16.568ZM142.017 29.192C139.825 29.192 138.081 28.68 136.785 27.656L137.625 25.544C138.921 26.504 140.401 26.984 142.065 26.984C142.785 26.984 143.337 26.864 143.721 26.624C144.121 26.384 144.321 26.048 144.321 25.616C144.321 25.248 144.185 24.96 143.913 24.752C143.641 24.528 143.177 24.336 142.521 24.176L140.505 23.72C138.297 23.24 137.193 22.112 137.193 20.336C137.193 19.6 137.401 18.952 137.817 18.392C138.233 17.816 138.817 17.368 139.569 17.048C140.321 16.728 141.193 16.568 142.185 16.568C143.049 16.568 143.881 16.704 144.681 16.976C145.481 17.232 146.185 17.608 146.793 18.104L145.905 20.144C144.689 19.248 143.441 18.8 142.161 18.8C141.473 18.8 140.937 18.928 140.553 19.184C140.169 19.44 139.977 19.792 139.977 20.24C139.977 20.592 140.089 20.872 140.313 21.08C140.553 21.288 140.953 21.464 141.513 21.608L143.577 22.064C144.777 22.336 145.649 22.76 146.193 23.336C146.753 23.896 147.033 24.632 147.033 25.544C147.033 26.664 146.585 27.552 145.689 28.208C144.793 28.864 143.569 29.192 142.017 29.192Z" fill="#233348"/>
<circle cx="20.5" cy="20.5" r="20.5" fill="#458FF6"/>
<g filter="url(#filter0_d)">
<path d="M21.9959 28.9923C20.1759 28.9923 18.5813 28.6076 17.2119 27.8383C15.8599 27.069 14.8199 25.9835 14.0919 24.5816C13.3639 23.1627 12.9999 21.5044 12.9999 19.6068C12.9999 17.7263 13.3639 16.0852 14.0919 14.6833C14.8199 13.2644 15.8599 12.1789 17.2119 11.4266C18.5813 10.6574 20.1759 10.2727 21.9959 10.2727C23.2439 10.2727 24.4139 10.4693 25.5059 10.8625C26.6153 11.2386 27.5339 11.7686 28.2619 12.4524L27.1699 14.8628C26.3379 14.1961 25.5059 13.7174 24.6739 13.4268C23.8593 13.1191 22.9839 12.9652 22.0479 12.9652C20.2626 12.9652 18.8759 13.5379 17.8879 14.6833C16.9173 15.8287 16.4319 17.4699 16.4319 19.6068C16.4319 21.7609 16.9173 23.4191 17.8879 24.5816C18.8586 25.727 20.2453 26.2997 22.0479 26.2997C22.9839 26.2997 23.8593 26.1544 24.6739 25.8638C25.5059 25.5561 26.3379 25.0688 27.1699 24.4021L28.2619 26.8126C27.5339 27.4964 26.6153 28.0349 25.5059 28.4281C24.4139 28.8042 23.2439 28.9923 21.9959 28.9923Z" fill="white"/>
</g>
<defs>
<filter id="filter0_d" x="10.9999" y="10.2727" width="19.262" height="22.7196" filterUnits="userSpaceOnUse" color-interpolation-filters="sRGB">
<feFlood flood-opacity="0" result="BackgroundImageFix"/>
<feColorMatrix in="SourceAlpha" type="matrix" values="0 0 0 0 0 0 0 0 0 0 0 0 0 0 0 0 0 0 127 0"/>
<feOffset dy="2"/>
<feGaussianBlur stdDeviation="1"/>
<feColorMatrix type="matrix" values="0 0 0 0 0 0 0 0 0 0 0 0 0 0 0 0 0 0 0.15 0"/>
<feBlend mode="normal" in2="BackgroundImageFix" result="effect1_dropShadow"/>
<feBlend mode="normal" in="SourceGraphic" in2="effect1_dropShadow" result="shape"/>
</filter>
</defs>
</svg>
