<svg width="166" height="44" viewBox="0 0 166 44" fill="none" xmlns="http://www.w3.org/2000/svg">
<path d="M59.6 30.216C57.92 30.216 56.448 29.856 55.184 29.136C53.936 28.416 52.976 27.4 52.304 26.088C51.632 24.76 51.296 23.208 51.296 21.432C51.296 19.672 51.632 18.136 52.304 16.824C52.976 15.496 53.936 14.48 55.184 13.776C56.448 13.056 57.92 12.696 59.6 12.696C60.752 12.696 61.832 12.88 62.84 13.248C63.864 13.6 64.712 14.096 65.384 14.736L64.376 16.992C63.608 16.368 62.84 15.92 62.072 15.648C61.32 15.36 60.512 15.216 59.648 15.216C58 15.216 56.72 15.752 55.808 16.824C54.912 17.896 54.464 19.432 54.464 21.432C54.464 23.448 54.912 25 55.808 26.088C56.704 27.16 57.984 27.696 59.648 27.696C60.512 27.696 61.32 27.56 62.072 27.288C62.84 27 63.608 26.544 64.376 25.92L65.384 28.176C64.712 28.816 63.864 29.32 62.84 29.688C61.832 30.04 60.752 30.216 59.6 30.216ZM79.4193 17.88V30H76.4673V28.056C76.0993 28.728 75.5713 29.256 74.8833 29.64C74.1953 30.008 73.4113 30.192 72.5313 30.192C71.4753 30.192 70.5393 29.936 69.7233 29.424C68.9073 28.912 68.2753 28.184 67.8273 27.24C67.3793 26.296 67.1553 25.2 67.1553 23.952C67.1553 22.704 67.3793 21.6 67.8273 20.64C68.2913 19.664 68.9313 18.912 69.7473 18.384C70.5633 17.84 71.4913 17.568 72.5313 17.568C73.4113 17.568 74.1953 17.76 74.8833 18.144C75.5713 18.512 76.0993 19.032 76.4673 19.704V17.88H79.4193ZM73.3473 27.84C74.3393 27.84 75.1073 27.496 75.6513 26.808C76.1953 26.12 76.4673 25.152 76.4673 23.904C76.4673 22.624 76.1953 21.64 75.6513 20.952C75.1073 20.264 74.3313 19.92 73.3233 19.92C72.3313 19.92 71.5553 20.28 70.9953 21C70.4513 21.704 70.1793 22.688 70.1793 23.952C70.1793 25.2 70.4513 26.16 70.9953 26.832C71.5553 27.504 72.3393 27.84 73.3473 27.84ZM89.2147 17.592C89.6787 17.592 90.0787 17.656 90.4147 17.784L90.3907 20.52C89.8787 20.312 89.3507 20.208 88.8067 20.208C87.7827 20.208 86.9987 20.504 86.4547 21.096C85.9267 21.688 85.6627 22.472 85.6627 23.448V30H82.6867V21.312C82.6867 20.032 82.6227 18.888 82.4947 17.88H85.3027L85.5427 20.016C85.8467 19.232 86.3267 18.632 86.9827 18.216C87.6387 17.8 88.3827 17.592 89.2147 17.592ZM98.9971 17.568C100.053 17.568 100.981 17.832 101.781 18.36C102.597 18.872 103.229 19.6 103.677 20.544C104.125 21.488 104.349 22.584 104.349 23.832C104.349 25.08 104.117 26.192 103.653 27.168C103.205 28.128 102.573 28.872 101.757 29.4C100.957 29.928 100.037 30.192 98.9971 30.192C98.1011 30.192 97.3011 30 96.5971 29.616C95.9091 29.232 95.3891 28.696 95.0371 28.008V30H92.0851V12.336H95.0611V19.704C95.4291 19.032 95.9571 18.512 96.6451 18.144C97.3331 17.76 98.1171 17.568 98.9971 17.568ZM98.2051 27.84C99.1971 27.84 99.9651 27.488 100.509 26.784C101.053 26.08 101.325 25.096 101.325 23.832C101.325 22.584 101.053 21.624 100.509 20.952C99.9651 20.264 99.1891 19.92 98.1811 19.92C97.1731 19.92 96.3971 20.264 95.8531 20.952C95.3091 21.64 95.0371 22.616 95.0371 23.88C95.0371 25.16 95.3091 26.144 95.8531 26.832C96.3971 27.504 97.1811 27.84 98.2051 27.84ZM117.576 24.096H109.224C109.288 25.392 109.608 26.352 110.184 26.976C110.776 27.584 111.648 27.888 112.8 27.888C114.128 27.888 115.36 27.456 116.496 26.592L117.36 28.656C116.784 29.12 116.072 29.496 115.224 29.784C114.392 30.056 113.544 30.192 112.68 30.192C110.696 30.192 109.136 29.632 108 28.512C106.864 27.392 106.296 25.856 106.296 23.904C106.296 22.672 106.544 21.576 107.04 20.616C107.536 19.656 108.232 18.912 109.128 18.384C110.024 17.84 111.04 17.568 112.176 17.568C113.84 17.568 115.152 18.112 116.112 19.2C117.088 20.272 117.576 21.752 117.576 23.64V24.096ZM112.248 19.728C111.448 19.728 110.792 19.968 110.28 20.448C109.784 20.912 109.464 21.592 109.32 22.488H114.96C114.864 21.576 114.584 20.888 114.12 20.424C113.672 19.96 113.048 19.728 112.248 19.728ZM127.052 17.568C129.948 17.568 131.396 19.232 131.396 22.56V30H128.396V22.704C128.396 21.744 128.212 21.048 127.844 20.616C127.476 20.168 126.908 19.944 126.14 19.944C125.228 19.944 124.492 20.24 123.932 20.832C123.372 21.408 123.092 22.176 123.092 23.136V30H120.116V21.312C120.116 20.032 120.052 18.888 119.924 17.88H122.732L122.948 19.872C123.364 19.136 123.924 18.568 124.628 18.168C125.348 17.768 126.156 17.568 127.052 17.568ZM139.017 30.192C136.825 30.192 135.081 29.68 133.785 28.656L134.625 26.544C135.921 27.504 137.401 27.984 139.065 27.984C139.785 27.984 140.337 27.864 140.721 27.624C141.121 27.384 141.321 27.048 141.321 26.616C141.321 26.248 141.185 25.96 140.913 25.752C140.641 25.528 140.177 25.336 139.521 25.176L137.505 24.72C135.297 24.24 134.193 23.112 134.193 21.336C134.193 20.6 134.401 19.952 134.817 19.392C135.233 18.816 135.817 18.368 136.569 18.048C137.321 17.728 138.193 17.568 139.185 17.568C140.049 17.568 140.881 17.704 141.681 17.976C142.481 18.232 143.185 18.608 143.793 19.104L142.905 21.144C141.689 20.248 140.441 19.8 139.161 19.8C138.473 19.8 137.937 19.928 137.553 20.184C137.169 20.44 136.977 20.792 136.977 21.24C136.977 21.592 137.089 21.872 137.313 22.08C137.553 22.288 137.953 22.464 138.513 22.608L140.577 23.064C141.777 23.336 142.649 23.76 143.193 24.336C143.753 24.896 144.033 25.632 144.033 26.544C144.033 27.664 143.585 28.552 142.689 29.208C141.793 29.864 140.569 30.192 139.017 30.192Z" fill="white"/>
<ellipse cx="20.5" cy="21.6656" rx="20.5" ry="21.6656" fill="white"/>
<g filter="url(#filter0_d)">
<path d="M21.512 30.98C19.7899 30.98 18.2811 30.59 16.9854 29.81C15.7061 29.03 14.7221 27.9293 14.0333 26.508C13.3444 25.0693 13 23.388 13 21.464C13 19.5573 13.3444 17.8933 14.0333 16.472C14.7221 15.0333 15.7061 13.9327 16.9854 13.17C18.2811 12.39 19.7899 12 21.512 12C22.6929 12 23.8 12.1993 24.8332 12.598C25.8829 12.9793 26.7521 13.5167 27.4409 14.21L26.4077 16.654C25.6204 15.978 24.8332 15.4927 24.046 15.198C23.2751 14.886 22.4469 14.73 21.5612 14.73C19.872 14.73 18.5599 15.3107 17.625 16.472C16.7066 17.6333 16.2474 19.2973 16.2474 21.464C16.2474 23.648 16.7066 25.3293 17.625 26.508C18.5435 27.6693 19.8556 28.25 21.5612 28.25C22.4469 28.25 23.2751 28.1027 24.046 27.808C24.8332 27.496 25.6204 27.002 26.4077 26.326L27.4409 28.77C26.7521 29.4633 25.8829 30.0093 24.8332 30.408C23.8 30.7893 22.6929 30.98 21.512 30.98Z" fill="#62B1F3"/>
</g>
<defs>
<filter id="filter0_d" x="11" y="12" width="18.4409" height="22.98" filterUnits="userSpaceOnUse" color-interpolation-filters="sRGB">
<feFlood flood-opacity="0" result="BackgroundImageFix"/>
<feColorMatrix in="SourceAlpha" type="matrix" values="0 0 0 0 0 0 0 0 0 0 0 0 0 0 0 0 0 0 127 0"/>
<feOffset dy="2"/>
<feGaussianBlur stdDeviation="1"/>
<feColorMatrix type="matrix" values="0 0 0 0 0 0 0 0 0 0 0 0 0 0 0 0 0 0 0.15 0"/>
<feBlend mode="normal" in2="BackgroundImageFix" result="effect1_dropShadow"/>
<feBlend mode="normal" in="SourceGraphic" in2="effect1_dropShadow" result="shape"/>
</filter>
</defs>
</svg>
