<svg width="168" height="163" viewBox="0 0 168 163" fill="none" xmlns="http://www.w3.org/2000/svg">
<g filter="url(#filter0_d)">
<rect x="30" y="5" width="108" height="103" rx="10" fill="#B336FF"/>
</g>
<path d="M110.78 64.2902H105.561V32.8236C105.561 32.384 105.2 32.0276 104.754 32.0276H96.146C95.7002 32.0276 95.3389 32.384 95.3389 32.8236V64.2902H89.2056V42.1627C89.2056 41.7232 88.8443 41.3667 88.3985 41.3667H79.7902C79.3444 41.3667 78.9832 41.7232 78.9832 42.1627V64.2902H72.8498V46.4078C72.8498 45.9682 72.4885 45.6118 72.0427 45.6118H63.4345C62.9887 45.6118 62.6274 45.9682 62.6274 46.4078V64.2901H57.4086C56.9628 64.2901 56.6016 64.6465 56.6016 65.0861C56.6016 65.5257 56.9628 65.8821 57.4086 65.8821H110.78C111.226 65.8821 111.587 65.5257 111.587 65.0861C111.587 64.6465 111.226 64.2902 110.78 64.2902ZM71.2357 64.2902H64.2414V47.2038H71.2357V64.2902ZM87.5915 64.2902H80.5973V42.9587H87.5915V64.2902ZM103.947 64.2902H96.953V33.6196H103.947V64.2902Z" fill="white"/>
<path d="M109.011 12.2756C108.467 11.802 107.743 11.5814 107.023 11.6706L100.136 12.5196C98.7694 12.6881 97.77 13.9538 97.941 15.3035C98.1138 16.6674 99.379 17.6395 100.764 17.4689L101.326 17.3998C92.8732 27.0656 82.8247 32.061 75.7241 34.5716C66.8704 37.702 59.9793 37.9698 59.9122 37.972C58.52 38.0149 57.4216 39.167 57.4637 40.5403C57.5054 41.8965 58.6151 42.9587 59.9902 42.9587C60.0158 42.9587 60.0415 42.9584 60.0678 42.9576C60.3742 42.9485 67.6792 42.694 77.3033 39.3118C82.7136 37.4103 87.8045 34.8861 92.4343 31.8095C92.804 31.5639 92.9017 31.0691 92.6525 30.7046C92.4036 30.3399 91.9021 30.2437 91.5323 30.4893C87.0145 33.4917 82.0448 35.9555 76.7615 37.8123C67.3739 41.1114 60.3147 41.3575 60.0195 41.3663L59.9902 41.3668C59.4932 41.3668 59.092 40.9826 59.077 40.4921C59.0617 39.9953 59.4591 39.5786 59.963 39.563C60.0334 39.5608 67.1212 39.3043 76.2688 36.07C83.9323 33.3605 94.9438 27.8279 103.882 16.8584C104.328 16.3123 103.857 15.483 103.154 15.57L100.564 15.8892C100.115 15.944 99.6791 15.6539 99.5652 15.2215C99.4281 14.7012 99.7967 14.1657 100.337 14.099L107.224 13.2499C107.761 13.1829 108.252 13.6115 108.252 14.1451V20.9372C108.252 21.4346 107.841 21.8393 107.337 21.8393C106.832 21.8393 106.422 21.4347 106.422 20.9372V18.8781C106.422 18.5528 106.209 18.2486 105.901 18.1337C105.582 18.015 105.205 18.1146 104.99 18.3748C101.976 22.0175 98.5436 25.3137 94.7888 28.1719C94.436 28.4405 94.3706 28.9403 94.643 29.2884C94.9153 29.6364 95.4223 29.7007 95.775 29.4322C99.0457 26.9425 102.077 24.1292 104.811 21.0496C104.871 22.3728 105.981 23.4314 107.337 23.4314C108.731 23.4314 109.866 22.3126 109.866 20.9374V14.1453C109.866 13.4303 109.554 12.7487 109.011 12.2756Z" fill="white"/>
<defs>
<filter id="filter0_d" x="0" y="0" width="168" height="163" filterUnits="userSpaceOnUse" color-interpolation-filters="sRGB">
<feFlood flood-opacity="0" result="BackgroundImageFix"/>
<feColorMatrix in="SourceAlpha" type="matrix" values="0 0 0 0 0 0 0 0 0 0 0 0 0 0 0 0 0 0 127 0"/>
<feOffset dy="25"/>
<feGaussianBlur stdDeviation="15"/>
<feColorMatrix type="matrix" values="0 0 0 0 0.701961 0 0 0 0 0.211765 0 0 0 0 1 0 0 0 0.15 0"/>
<feBlend mode="normal" in2="BackgroundImageFix" result="effect1_dropShadow"/>
<feBlend mode="normal" in="SourceGraphic" in2="effect1_dropShadow" result="shape"/>
</filter>
</defs>
</svg>
