<svg width="168" height="163" viewBox="0 0 168 163" fill="none" xmlns="http://www.w3.org/2000/svg">
<g filter="url(#filter0_d)">
<rect x="30" y="5" width="107.471" height="102.472" rx="10" fill="#1C74EF"/>
</g>
<path d="M90.2715 51.7484C89.7056 51.7484 89.2463 52.2014 89.2463 52.7595C89.2463 53.3176 89.7056 53.7705 90.2715 53.7705C90.8373 53.7705 91.2966 53.3176 91.2966 52.7595C91.2966 52.2014 90.8373 51.7484 90.2715 51.7484Z" fill="white"/>
<path d="M109.777 77.4008L96.094 63.9053C98.3231 60.5937 99.4973 56.7588 99.4973 52.7596C99.4973 41.6097 90.3 32.5386 78.995 32.5386C67.69 32.5386 58.4927 41.6097 58.4927 52.7596C58.4927 63.9094 67.69 72.9806 78.995 72.9806C83.0499 72.9806 86.9382 71.8224 90.2957 69.6241L94.0779 73.3543C94.0784 73.3549 94.0789 73.3554 94.0796 73.356L103.979 83.1195C104.754 83.8835 105.783 84.3043 106.878 84.3043C107.973 84.3043 109.003 83.8835 109.777 83.1198C110.552 82.3561 110.979 81.3406 110.979 80.2601C110.979 79.1796 110.552 78.1641 109.777 77.4008ZM89.8136 67.4933C89.8136 67.4934 89.8135 67.4934 89.8134 67.4935C86.6492 69.7603 82.9084 70.9585 78.995 70.9585C68.8205 70.9585 60.5429 62.7944 60.5429 52.7596C60.5429 42.7247 68.8205 34.5607 78.995 34.5607C89.1695 34.5607 97.4471 42.7247 97.4471 52.7596C97.4471 56.6193 96.2322 60.3088 93.9338 63.4297C92.7839 64.9921 91.3977 66.3593 89.8136 67.4933ZM91.9643 68.4099C93.0253 67.5539 93.9952 66.5973 94.863 65.551L97.7714 68.4194C96.8869 69.449 95.9166 70.4061 94.8727 71.2784L91.9643 68.4099ZM108.328 81.6896C107.94 82.0718 107.425 82.2822 106.878 82.2822C106.331 82.2822 105.816 82.0718 105.429 81.6896L96.3262 72.712C97.3643 71.8333 98.3341 70.877 99.2249 69.8531L108.328 78.831C108.715 79.2126 108.928 79.72 108.928 80.2601C108.928 80.8002 108.715 81.3077 108.328 81.6896Z" fill="white"/>
<path d="M78.9952 36.5828C69.9511 36.5828 62.5933 43.8396 62.5933 52.7595C62.5933 61.6795 69.9511 68.9363 78.9952 68.9363C88.0393 68.9363 95.397 61.6795 95.397 52.7595C95.397 43.8396 88.0393 36.5828 78.9952 36.5828ZM78.9952 66.9142C71.0817 66.9142 64.6436 60.5644 64.6436 52.7595C64.6436 44.9546 71.0817 38.6049 78.9952 38.6049C86.9087 38.6049 93.3468 44.9546 93.3468 52.7595C93.3468 60.5644 86.9087 66.9142 78.9952 66.9142Z" fill="white"/>
<path d="M90.4832 48.4194C89.6004 46.1535 88.0635 44.2161 86.0382 42.8169C83.9648 41.3842 81.5294 40.627 78.9952 40.627C78.4291 40.627 77.9701 41.0797 77.9701 41.638C77.9701 42.1963 78.4291 42.6491 78.9952 42.6491C83.2083 42.6491 87.0558 45.2594 88.5694 49.1448C88.726 49.5468 89.1144 49.7935 89.5265 49.7935C89.6487 49.7935 89.7731 49.7717 89.8939 49.7259C90.4224 49.5256 90.6862 48.9407 90.4832 48.4194Z" fill="white"/>
<defs>
<filter id="filter0_d" x="0" y="0" width="167.471" height="162.472" filterUnits="userSpaceOnUse" color-interpolation-filters="sRGB">
<feFlood flood-opacity="0" result="BackgroundImageFix"/>
<feColorMatrix in="SourceAlpha" type="matrix" values="0 0 0 0 0 0 0 0 0 0 0 0 0 0 0 0 0 0 127 0"/>
<feOffset dy="25"/>
<feGaussianBlur stdDeviation="15"/>
<feColorMatrix type="matrix" values="0 0 0 0 0.239216 0 0 0 0 0.545098 0 0 0 0 0.972549 0 0 0 0.15 0"/>
<feBlend mode="normal" in2="BackgroundImageFix" result="effect1_dropShadow"/>
<feBlend mode="normal" in="SourceGraphic" in2="effect1_dropShadow" result="shape"/>
</filter>
</defs>
</svg>
