<svg width="168" height="163" viewBox="0 0 168 163" fill="none" xmlns="http://www.w3.org/2000/svg">
<g filter="url(#filter0_d)">
<rect x="30" y="5" width="107.471" height="102.472" rx="10" fill="#FF4454"/>
</g>
<g clip-path="url(#clip0)">
<path d="M109.334 34.621H106.258C105.772 34.621 105.379 35.0143 105.379 35.4996C105.379 35.985 105.772 36.3783 106.258 36.3783H109.334C110.788 36.3783 111.97 37.5609 111.97 39.0143V43.0562H55.501V39.0143C55.501 37.5609 56.6834 36.3783 58.137 36.3783H102.4C102.885 36.3783 103.278 35.985 103.278 35.4996C103.278 35.0143 102.885 34.621 102.4 34.621H58.137C55.7144 34.621 53.7436 36.5918 53.7436 39.0143V48.7009C53.7436 49.1863 54.137 49.5796 54.6223 49.5796C55.1076 49.5796 55.501 49.1863 55.501 48.7009V44.8135H111.97V67.4675C111.97 67.9529 112.363 68.3462 112.849 68.3462C113.334 68.3462 113.728 67.9529 113.728 67.4675V39.0143C113.728 36.5918 111.757 34.621 109.334 34.621Z" fill="white"/>
<path d="M112.849 70.2943C112.363 70.2943 111.97 70.6876 111.97 71.173V73.4582C111.97 74.9116 110.788 76.0942 109.334 76.0942H58.137C56.6834 76.0942 55.501 74.9116 55.501 73.4582V52.4717C55.501 51.9863 55.1076 51.593 54.6223 51.593C54.137 51.593 53.7436 51.9863 53.7436 52.4717V73.4582C53.7436 75.8808 55.7144 77.8516 58.137 77.8516H109.334C111.757 77.8516 113.728 75.8808 113.728 73.4582V71.173C113.728 70.6877 113.334 70.2943 112.849 70.2943Z" fill="white"/>
<path d="M66.453 53.7124C66.1098 53.3693 65.5534 53.3693 65.2104 53.7124L59.9302 58.9926C59.7653 59.1574 59.6728 59.3808 59.6728 59.614C59.6728 59.8471 59.7653 60.0704 59.9302 60.2354L65.1406 65.4458C65.3121 65.6173 65.537 65.703 65.7618 65.703C65.9867 65.703 66.2116 65.6173 66.3831 65.4458C66.7263 65.1025 66.7263 64.5462 66.3831 64.2031L61.794 59.6141L66.453 54.9551C66.7962 54.6119 66.7962 54.0556 66.453 53.7124Z" fill="white"/>
<path d="M78.2696 65.4456C78.4411 65.6171 78.666 65.7029 78.8908 65.7029C79.1157 65.7029 79.3406 65.6171 79.5121 65.4456L84.7226 60.2352C84.8873 60.0704 84.9799 59.847 84.9799 59.6138C84.9799 59.3807 84.8873 59.1574 84.7226 58.9924L79.4423 53.7122C79.0991 53.3692 78.5428 53.3692 78.1997 53.7122C77.8566 54.0555 77.8566 54.6118 78.1997 54.9549L82.8588 59.6138L78.2697 64.2028C77.9264 64.5462 77.9264 65.1025 78.2696 65.4456Z" fill="white"/>
<path d="M69.207 68.6822C69.5614 68.6822 69.8954 68.4661 70.0286 68.115L76.2724 51.6665C76.4446 51.2128 76.2164 50.7054 75.7627 50.5332C75.3091 50.3608 74.8016 50.5892 74.6295 51.0428L68.3858 67.4915C68.2135 67.9451 68.4418 68.4525 68.8954 68.6248C68.998 68.6638 69.1033 68.6822 69.207 68.6822Z" fill="white"/>
<path d="M57.6105 39.7608C57.6105 41.2142 58.7929 42.3968 60.2465 42.3968C61.7 42.3968 62.8825 41.2142 62.8825 39.7608C62.8825 38.3073 61.7 37.1248 60.2465 37.1248C58.7929 37.1248 57.6105 38.3073 57.6105 39.7608ZM61.1251 39.7608C61.1251 40.2453 60.731 40.6394 60.2465 40.6394C59.7619 40.6394 59.3678 40.2453 59.3678 39.7608C59.3678 39.2762 59.7619 38.8821 60.2465 38.8821C60.731 38.8821 61.1251 39.2762 61.1251 39.7608Z" fill="white"/>
<path d="M64.4243 39.7608C64.4243 41.2142 65.6067 42.3968 67.0603 42.3968C68.5138 42.3968 69.6963 41.2142 69.6963 39.7608C69.6963 38.3073 68.5138 37.1248 67.0603 37.1248C65.6067 37.1248 64.4243 38.3073 64.4243 39.7608ZM67.939 39.7608C67.939 40.2453 67.5448 40.6394 67.0603 40.6394C66.5757 40.6394 66.1816 40.2453 66.1816 39.7608C66.1816 39.2762 66.5757 38.8821 67.0603 38.8821C67.5448 38.8821 67.939 39.2762 67.939 39.7608Z" fill="white"/>
<path d="M71.2379 39.7608C71.2379 41.2142 72.4204 42.3968 73.8739 42.3968C75.3275 42.3968 76.51 41.2142 76.51 39.7608C76.51 38.3073 75.3275 37.1248 73.8739 37.1248C72.4204 37.1248 71.2379 38.3073 71.2379 39.7608ZM74.7526 39.7608C74.7526 40.2453 74.3585 40.6394 73.8739 40.6394C73.3894 40.6394 72.9953 40.2453 72.9953 39.7608C72.9953 39.2762 73.3894 38.8821 73.8739 38.8821C74.3585 38.8821 74.7526 39.2762 74.7526 39.7608Z" fill="white"/>
<path d="M93.0495 54.6392H98.5558C100.009 54.6392 101.192 53.4566 101.192 52.0032C101.192 50.5498 100.009 49.3672 98.5558 49.3672H93.0495C91.596 49.3672 90.4135 50.5498 90.4135 52.0032C90.4135 53.4566 91.596 54.6392 93.0495 54.6392ZM93.0495 51.1245H98.5558C99.0404 51.1245 99.4345 51.5186 99.4345 52.0032C99.4345 52.4878 99.0404 52.8819 98.5558 52.8819H93.0495C92.5649 52.8819 92.1708 52.4878 92.1708 52.0032C92.1708 51.5186 92.5649 51.1245 93.0495 51.1245Z" fill="white"/>
<path d="M93.0495 61.6685H107.577C109.03 61.6685 110.213 60.4859 110.213 59.0325C110.213 57.5791 109.03 56.3965 107.577 56.3965H93.0495C91.596 56.3965 90.4135 57.5791 90.4135 59.0325C90.4135 60.4859 91.596 61.6685 93.0495 61.6685ZM93.0495 58.1538H107.577C108.061 58.1538 108.455 58.5479 108.455 59.0325C108.455 59.517 108.061 59.9112 107.577 59.9112H93.0495C92.5649 59.9112 92.1708 59.517 92.1708 59.0325C92.1708 58.5479 92.5649 58.1538 93.0495 58.1538Z" fill="white"/>
<path d="M93.0495 68.6979H103.261C104.715 68.6979 105.897 67.5154 105.897 66.0619C105.897 64.6085 104.715 63.4259 103.261 63.4259H93.0495C91.596 63.4259 90.4135 64.6085 90.4135 66.0619C90.4135 67.5154 91.596 68.6979 93.0495 68.6979ZM93.0495 65.1832H103.261C103.746 65.1832 104.14 65.5774 104.14 66.0619C104.14 66.5465 103.746 66.9406 103.261 66.9406H93.0495C92.5649 66.9406 92.1708 66.5465 92.1708 66.0619C92.1708 65.5774 92.5649 65.1832 93.0495 65.1832Z" fill="white"/>
</g>
<defs>
<filter id="filter0_d" x="0" y="0" width="167.471" height="162.472" filterUnits="userSpaceOnUse" color-interpolation-filters="sRGB">
<feFlood flood-opacity="0" result="BackgroundImageFix"/>
<feColorMatrix in="SourceAlpha" type="matrix" values="0 0 0 0 0 0 0 0 0 0 0 0 0 0 0 0 0 0 127 0"/>
<feOffset dy="25"/>
<feGaussianBlur stdDeviation="15"/>
<feColorMatrix type="matrix" values="0 0 0 0 0.384314 0 0 0 0 0.211765 0 0 0 0 1 0 0 0 0.15 0"/>
<feBlend mode="normal" in2="BackgroundImageFix" result="effect1_dropShadow"/>
<feBlend mode="normal" in="SourceGraphic" in2="effect1_dropShadow" result="shape"/>
</filter>
<clipPath id="clip0">
<rect width="59.9839" height="59.9839" fill="white" transform="translate(53.7436 26.2443)"/>
</clipPath>
</defs>
</svg>
